<svg id="appde" xmlns="http://www.w3.org/2000/svg" viewBox="0 0 279 472">
  <defs>
    <style>
      .cls-1 {
        fill: #6b7cdb;
      }
    </style>
  </defs>
  <path id="Path_1" data-name="Path 1" class="cls-1" d="M279,38.4A38.393,38.393,0,0,0,240.6,0H38.4A38.393,38.393,0,0,0,0,38.4V433.605A38.393,38.393,0,0,0,38.4,472H240.6A38.393,38.393,0,0,0,279,433.6ZM264,365H16V92H264Zm-22.687,91H38.688A22.716,22.716,0,0,1,16,433.555V381H264v52.555A22.716,22.716,0,0,1,241.313,456ZM264,38.445V76H16V38.445A22.716,22.716,0,0,1,38.688,16H241.313A22.716,22.716,0,0,1,264,38.445Zm0,0"/>
  <path id="Path_2" data-name="Path 2" class="cls-1" d="M172.926,36H107.074a8,8,0,0,0,0,16h65.852a8,8,0,0,0,0-16Zm0,0"/>
  <path id="Path_3" data-name="Path 3" class="cls-1" d="M160,410H120a8,8,0,0,0,0,16h40a8,8,0,0,0,0-16Zm0,0"/>
  <path id="Path_4" data-name="Path 4" class="cls-1" d="M65.121,227H68v98.715A24.173,24.173,0,0,0,92.2,350h95.6A24.173,24.173,0,0,0,212,325.715V227h2.883a8,8,0,0,0,0-16H193V134.18a8.2,8.2,0,0,0-3.152-6.18l-.035-11.043a7.945,7.945,0,0,0-2.4-5.66A8.088,8.088,0,0,0,181.7,109h-.047l-19.543.059a8.087,8.087,0,0,0-8.11,7.949v10.957a7.461,7.461,0,0,0-3,6.215v2.859l-5.68-.031a11.3,11.3,0,0,0-8.27,3.391,10.623,10.623,0,0,0-3.05,7.726v39.418a8,8,0,1,0,16,0V153.031l1,.008V211H131.133l.086-57.184a7.515,7.515,0,0,0-.6-2.953l-13.883-33.8a8,8,0,0,0-14.8.035L88.063,150.949a7.1,7.1,0,0,0-.6,2.867L87.551,211H65.121a8,8,0,0,0,0,16ZM187.8,334H92.2a8.157,8.157,0,0,1-8.2-8.285V282H196v43.715A8.157,8.157,0,0,1,187.8,334Zm8.2-68H84V227h9.684a1.807,1.807,0,0,0,1.879,1h.012a1.8,1.8,0,0,0,1.867-1h23.8a1.788,1.788,0,0,0,1.863,1h.016A1.807,1.807,0,0,0,125,227h71ZM173.488,124.852l.141,1.148H170v-1.039ZM167,145.9c0-.25.043-.508.043-.766,0-.293-.043-.578-.043-.863V142h10v69H167Zm-55.707.1h-3.906l1.953-4.762Zm-7.82,16h11.734l-.074,49H103.551Zm0,0"/>
</svg>
