<svg height="480pt" viewBox="0 0 480.00634 480" width="480pt" xmlns="http://www.w3.org/2000/svg"><path d="m280.007812 112.003906c0 4.417969-3.582031 8-8 8-4.417968 0-8-3.582031-8-8 0-4.417968 3.582032-8 8-8 4.417969 0 8 3.582032 8 8zm0 0"/><path d="m216.007812 112.003906c0 4.417969-3.582031 8-8 8-4.417968 0-8-3.582031-8-8 0-4.417968 3.582032-8 8-8 4.417969 0 8 3.582032 8 8zm0 0"/><path d="m264.007812 320.003906c-4.417968 0-8 3.582032-8 8 0 8.835938-7.164062 16-16 16-8.839843 0-16-7.164062-16-16 0-8.835937 7.160157-16 16-16 4.417969 0 8-3.582031 8-8 0-4.417968-3.582031-8-8-8-17.675781 0-32 14.324219-32 32 0 17.671875 14.324219 32 32 32 17.671876 0 32-14.328125 32-32 0-4.417968-3.582031-8-8-8zm0 0"/><path d="m472.007812 336.003906h-64c-4.417968 0-8 3.582032-8 8v48c0 8.652344 2.804688 17.074219 8 24h-56v-128c0-17.675781-14.328124-32-32-32h-60.722656l24-24h28.722656c30.925782 0 56 25.070313 56 56v104c0 4.417969 3.582032 8 8 8 4.417969 0 8-3.582031 8-8v-104c0-39.765625-32.238281-72-72-72h-24v-16c20.144532-15.109375 32-38.820312 32-64v-12.722656c28.328126-11.527344 44.542969-41.488281 38.695313-71.507812-5.84375-30.023438-32.113281-51.710938-62.695313-51.76953175h-160c-8.839843 0-16 7.16406275-16 15.99999975v48c.019532 26.058594 15.839844 49.507813 40 59.277344v12.722656c0 25.179688 11.855469 48.890625 32 64v16h-24c-39.765624 0-72 32.234375-72 72v104c0 4.417969 3.582032 8 8 8 4.417969 0 8-3.582031 8-8v-104c0-30.929687 25.070313-56 56-56h28.71875l24 24h-60.71875c-17.675781 0-32 14.324219-32 32v128h-48v-16c0-13.253906-10.746093-24-24-24h-16c-13.257812 0-24 10.746094-24 24v16h-8c-4.417968 0-7.9999995 3.582032-7.9999995 8v48c0 4.417969 3.5820315 8 7.9999995 8h464c4.417969 0 8-3.582031 8-8v-48c0-4.417968-3.582031-8-8-8 5.191407-6.925781 8-15.347656 8-24v-48c0-4.417968-3.582031-8-8-8zm-296-200v-64h64c4.417969 0 8-3.582031 8-8 0-4.417968-3.582031-8-8-8h-72c-4.417968 0-8 3.582032-8 8v41.519532c-14.835937-8.566407-23.984374-24.390626-24-41.519532v-48h160c21.691407.039063 40.660157 14.617188 46.277344 35.570313 5.617188 20.949219-3.515625 43.066406-22.277344 53.949219v-41.519532c0-4.417968-3.582031-8-8-8h-32c-4.417968 0-8 3.582032-8 8 0 4.417969 3.582032 8 8 8h24v64c0 35.34375-28.65625 64-64 64-35.347656 0-64-28.65625-64-64zm64 80c11.015626.003906 21.914063-2.285156 32-6.722656v11.441406l-32 32-32-32v-11.441406c10.082032 4.4375 20.980469 6.726562 32 6.722656zm-96 72c0-8.835937 7.160157-16 16-16h160c8.835938 0 16 7.164063 16 16v96h-192zm0 112h192v16h-192zm-112 0c0-4.417968 3.582032-8 8-8h16c4.417969 0 8 3.582032 8 8v16h-32zm432 64h-448v-32h448zm-48-72v-40h48v40c0 13.253906-10.746093 24-24 24-13.257812 0-24-10.746094-24-24zm0 0"/><path d="m436.644531 268.003906c-1.359375-2.605468-4.039062-4.253906-6.980469-4.292968-2.9375-.039063-5.660156 1.535156-7.09375 4.101562-1.429687 2.566406-1.339843 5.710938.234376 8.191406 1.894531 3.449219 1.550781 7.699219-.878907 10.800782-6.871093 8.242187-7.890625 19.886718-2.558593 29.199218 1.433593 2.484375 4.089843 4.011719 6.960937 4 1.371094-.003906 2.722656-.363281 3.917969-1.039062 1.851562-1.058594 3.207031-2.808594 3.761718-4.867188.554688-2.054687.265626-4.25-.800781-6.09375-1.894531-3.453125-1.546875-7.699218.878907-10.800781 6.871093-8.242187 7.890624-19.886719 2.558593-29.199219zm0 0"/><path d="m468.644531 268.003906c-1.359375-2.605468-4.039062-4.253906-6.980469-4.292968-2.9375-.039063-5.660156 1.535156-7.09375 4.101562-1.429687 2.566406-1.339843 5.710938.234376 8.191406 1.894531 3.449219 1.550781 7.699219-.878907 10.800782-6.871093 8.242187-7.890625 19.886718-2.558593 29.199218 1.433593 2.484375 4.089843 4.011719 6.960937 4 1.371094-.003906 2.722656-.363281 3.917969-1.039062 1.851562-1.058594 3.207031-2.808594 3.761718-4.867188.554688-2.054687.265626-4.25-.800781-6.09375-1.894531-3.453125-1.546875-7.699218.878907-10.800781 6.871093-8.242187 7.890624-19.886719 2.558593-29.199219zm0 0"/><path d="m75.925781 193.363281c3.234375-.015625 6.144531-1.976562 7.371094-4.96875 1.226563-2.996093.527344-6.433593-1.769531-8.710937-15.621094-15.617188-40.941406-15.617188-56.5625 0-3.136719 3.136718-3.136719 8.222656 0 11.359375 3.136718 3.136719 8.222656 3.136719 11.363281 0 9.367187-9.359375 24.546875-9.359375 33.917969 0 1.511718 1.496093 3.554687 2.332031 5.679687 2.320312zm0 0"/><path d="m13.6875 168.402344c21.867188-21.871094 57.328125-21.871094 79.199219 0 3.121093 3.101562 8.160156 3.101562 11.28125 0 3.101562-3.121094 3.101562-8.160156 0-11.277344-28.121094-28.128906-73.722657-28.128906-101.839844 0-3.105469 3.117188-3.105469 8.15625 0 11.277344 1.5 1.515625 3.546875 2.367187 5.679687 2.367187 2.132813 0 4.175782-.851562 5.679688-2.367187zm0 0"/><path d="m61.285156 208.003906c0 4.417969-3.582031 8-8 8-4.417968 0-8-3.582031-8-8 0-4.417968 3.582032-8 8-8 4.417969 0 8 3.582032 8 8zm0 0"/><path d="m53.285156 288.003906c4.417969 0 8-3.582031 8-8v-40c0-4.417968-3.582031-8-8-8-4.417968 0-8 3.582032-8 8v40c0 4.417969 3.582032 8 8 8zm0 0"/><path d="m466.246094 66.324219c9.285156-13.304688 7.148437-31.453125-4.976563-42.230469-12.125-10.78125-30.398437-10.78125-42.523437 0-12.125 10.777344-14.265625 28.925781-4.980469 42.230469-8.390625 3.957031-13.75 12.398437-13.757813 21.679687v32c0 4.417969 3.582032 8 8 8 4.417969 0 8-3.582031 8-8v-32c0-4.417968 3.582032-8 8-8h32c4.417969 0 8 3.582032 8 8v32c0 4.417969 3.582032 8 8 8 4.417969 0 8-3.582031 8-8v-32c-.011718-9.28125-5.371093-17.722656-13.761718-21.679687zm-26.238282-34.320313c8.835938 0 16 7.164063 16 16 0 8.835938-7.164062 16-16 16-8.839843 0-16-7.164062-16-16 0-8.835937 7.160157-16 16-16zm0 0"/><path d="m376.007812 224.003906h48c17.671876 0 32-14.328125 32-32v-40c0-4.417968-3.582031-8-8-8-4.417968 0-8 3.582032-8 8v40c0 8.835938-7.164062 16-16 16h-48c-4.417968 0-8 3.582032-8 8 0 4.417969 3.582032 8 8 8zm0 0"/></svg>