<svg xmlns="http://www.w3.org/2000/svg" viewBox="0 0 512 456.124">
  <defs>
    <style>
      .cls-1 {
        fill: red;
      }
    </style>
  </defs>
  <g id="monitor.1svg" transform="translate(0 -27.937)">
    <g id="Group_2" data-name="Group 2">
      <g id="Group_1" data-name="Group 1">
        <path id="Path_1" data-name="Path 1" class="cls-1" d="M481.091,27.937H30.909A30.944,30.944,0,0,0,0,58.846V369.665a30.944,30.944,0,0,0,30.909,30.909h154.26v22.49a37.434,37.434,0,0,1-37.391,37.391h-34a11.8,11.8,0,1,0,0,23.606H398.217a11.8,11.8,0,0,0,0-23.606h-34a37.434,37.434,0,0,1-37.391-37.391V400.575h154.26A30.945,30.945,0,0,0,512,369.666V58.846A30.941,30.941,0,0,0,481.091,27.937ZM195.92,460.457a60.675,60.675,0,0,0,12.857-37.391v-22.49h94.447v22.49a60.673,60.673,0,0,0,12.857,37.391Zm292.474-90.791a7.312,7.312,0,0,1-7.3,7.3H30.909a7.312,7.312,0,0,1-7.3-7.3V307.633H488.394Zm0-85.64H23.606V58.846a7.312,7.312,0,0,1,7.3-7.3H481.09a7.313,7.313,0,0,1,7.3,7.3v225.18Z"/>
      </g>
    </g>
    <g id="Group_4" data-name="Group 4">
      <g id="Group_3" data-name="Group 3">
        <circle id="Ellipse_1" data-name="Ellipse 1" class="cls-1" cx="12.738" cy="12.738" r="12.738" transform="translate(243.265 329.567)"/>
      </g>
    </g>
    <g id="Group_6" data-name="Group 6">
      <g id="Group_5" data-name="Group 5">
        <path id="Path_2" data-name="Path 2" class="cls-1" d="M276.238,109.254a11.8,11.8,0,0,0-16.693,0l-83.414,83.414a11.8,11.8,0,0,0,16.693,16.693l83.414-83.414a11.8,11.8,0,0,0,0-16.693Z"/>
      </g>
    </g>
    <g id="Group_8" data-name="Group 8">
      <g id="Group_7" data-name="Group 7">
        <path id="Path_3" data-name="Path 3" class="cls-1" d="M325.678,157.593a11.8,11.8,0,0,0-16.692,0l-33.23,33.228a11.8,11.8,0,0,0,16.692,16.693l33.23-33.228a11.8,11.8,0,0,0,0-16.693Z"/>
      </g>
    </g>
  </g>
</svg>
