<svg xmlns="http://www.w3.org/2000/svg" viewBox="0 0 511.998 512">
  <defs>
    <style>
      .cls-1 {
        fill: #42de8a;
      }
    </style>
  </defs>
  <g id="seo" transform="translate(-0.001)">
    <g id="Group_2" data-name="Group 2">
      <g id="Group_1" data-name="Group 1">
        <path id="Path_5" data-name="Path 5" class="cls-1" d="M394.668,0H32A32,32,0,0,0,0,32V288a32,32,0,0,0,32,32H170.668V298.667H32A10.667,10.667,0,0,1,21.334,288V32A10.667,10.667,0,0,1,32,21.333H394.668A10.667,10.667,0,0,1,405.335,32V224h21.333V32A32,32,0,0,0,394.668,0Z"/>
      </g>
    </g>
    <g id="Group_4" data-name="Group 4">
      <g id="Group_3" data-name="Group 3">
        <rect id="Rectangle_1" data-name="Rectangle 1" class="cls-1" width="21.333" height="64" transform="translate(128.001 309.333)"/>
      </g>
    </g>
    <g id="Group_6" data-name="Group 6">
      <g id="Group_5" data-name="Group 5">
        <path id="Path_6" data-name="Path 6" class="cls-1" d="M74.668,256A10.667,10.667,0,0,1,64,245.333V224H42.668v21.333a32,32,0,0,0,32,32H96V256Z"/>
      </g>
    </g>
    <g id="Group_8" data-name="Group 8">
      <g id="Group_7" data-name="Group 7">
        <rect id="Rectangle_2" data-name="Rectangle 2" class="cls-1" width="21.333" height="21.333" transform="translate(42.668 181.333)"/>
      </g>
    </g>
    <g id="Group_10" data-name="Group 10">
      <g id="Group_9" data-name="Group 9">
        <path id="Path_7" data-name="Path 7" class="cls-1" d="M389.836,225.941a115.894,115.894,0,1,0-.015,163.9A115.894,115.894,0,0,0,389.836,225.941ZM307.82,402.453a94.56,94.56,0,1,1,94.592-94.528A94.56,94.56,0,0,1,307.82,402.453Z"/>
      </g>
    </g>
    <g id="Group_12" data-name="Group 12">
      <g id="Group_11" data-name="Group 11">
        <path id="Path_8" data-name="Path 8" class="cls-1" d="M508.876,464l-66.955-66.933a10.661,10.661,0,0,0-15.082,0l-29.76,29.76a10.667,10.667,0,0,0,0,15.083l66.955,66.965A10.662,10.662,0,0,0,471.575,512h0a10.666,10.666,0,0,0,7.541-3.157l29.76-29.76A10.667,10.667,0,0,0,508.876,464Zm-37.3,22.251L419.7,434.368l14.677-14.677,51.872,51.883Z"/>
      </g>
    </g>
    <g id="Group_14" data-name="Group 14">
      <g id="Group_13" data-name="Group 13">
        <rect id="Rectangle_3" data-name="Rectangle 3" class="cls-1" width="21.333" height="52.608" transform="translate(374.75 389.828) rotate(-45)"/>
      </g>
    </g>
    <g id="Group_16" data-name="Group 16">
      <g id="Group_15" data-name="Group 15">
        <path id="Path_9" data-name="Path 9" class="cls-1" d="M309.334,234.667V256a53.4,53.4,0,0,1,53.333,53.333H384A74.751,74.751,0,0,0,309.334,234.667Z"/>
      </g>
    </g>
    <g id="Group_18" data-name="Group 18">
      <g id="Group_17" data-name="Group 17">
        <rect id="Rectangle_4" data-name="Rectangle 4" class="cls-1" width="85.333" height="21.333" transform="translate(106.668 362.667)"/>
      </g>
    </g>
    <g id="Group_20" data-name="Group 20">
      <g id="Group_19" data-name="Group 19">
        <path id="Path_10" data-name="Path 10" class="cls-1" d="M160,42.667a32,32,0,1,0,32,32A32,32,0,0,0,160,42.667Zm0,42.666a10.667,10.667,0,1,1,10.667-10.667A10.667,10.667,0,0,1,160,85.333Z"/>
      </g>
    </g>
    <g id="Group_22" data-name="Group 22">
      <g id="Group_21" data-name="Group 21">
        <path id="Path_11" data-name="Path 11" class="cls-1" d="M234.668,117.333a32,32,0,1,0,32,32A32,32,0,0,0,234.668,117.333Zm0,42.667a10.667,10.667,0,1,1,10.667-10.667A10.667,10.667,0,0,1,234.668,160Z"/>
      </g>
    </g>
    <g id="Group_24" data-name="Group 24">
      <g id="Group_23" data-name="Group 23">
        <rect id="Rectangle_5" data-name="Rectangle 5" class="cls-1" width="75.424" height="21.333" transform="translate(88.458 131.127) rotate(-45)"/>
      </g>
    </g>
    <g id="Group_26" data-name="Group 26">
      <g id="Group_25" data-name="Group 25">
        <rect id="Rectangle_6" data-name="Rectangle 6" class="cls-1" width="21.333" height="75.424" transform="translate(163.079 92.906) rotate(-45)"/>
      </g>
    </g>
    <g id="Group_28" data-name="Group 28">
      <g id="Group_27" data-name="Group 27">
        <path id="Path_12" data-name="Path 12" class="cls-1" d="M309.334,42.667a32,32,0,1,0,32,32A32,32,0,0,0,309.334,42.667Zm0,42.666A10.667,10.667,0,1,1,320,74.666,10.667,10.667,0,0,1,309.334,85.333Z"/>
      </g>
    </g>
    <g id="Group_30" data-name="Group 30">
      <g id="Group_29" data-name="Group 29">
        <rect id="Rectangle_7" data-name="Rectangle 7" class="cls-1" width="75.424" height="21.333" transform="translate(237.786 131.164) rotate(-45)"/>
      </g>
    </g>
  </g>
</svg>
