<svg id="webdev" xmlns="http://www.w3.org/2000/svg" viewBox="0 0 512 512">
  <defs>
    <style>
      .cls-1 {
        fill: #deb442;
      }
    </style>
  </defs>
  <path id="Path_1" data-name="Path 1" class="cls-1" d="M432.734,0H79.266A79.356,79.356,0,0,0,0,79.266v34.27H512V79.266A79.356,79.356,0,0,0,432.734,0ZM79.266,71.766a15,15,0,1,1,15-15,15,15,0,0,1-15,15Zm64.266,0a15,15,0,1,1,15-15,15,15,0,0,1-15,15Zm64.27,0a15,15,0,1,1,15-15,15,15,0,0,1-15,15Zm0,0"/>
  <path id="Path_2" data-name="Path 2" class="cls-1" d="M0,432.734A79.356,79.356,0,0,0,79.266,512H432.734A79.356,79.356,0,0,0,512,432.734v-289.2H0ZM341.793,234.473a15,15,0,1,1,21.215-21.211l64.266,64.266a15,15,0,0,1,0,21.215l-64.266,64.266a15,15,0,1,1-21.216-21.21l53.661-53.659ZM210.449,345.691l64.27-128.535a15,15,0,0,1,26.832,13.418l-64.27,128.535a15,15,0,1,1-26.832-13.418ZM84.727,277.527l64.266-64.27a15,15,0,1,1,21.215,21.215l-53.66,53.66,53.656,53.66a15,15,0,1,1-21.211,21.215l-64.266-64.27a15,15,0,0,1,0-21.21Zm0,0"/>
</svg>
