<svg xmlns="http://www.w3.org/2000/svg" xmlns:xlink="http://www.w3.org/1999/xlink" viewBox="0 0 1280.964 332.474">
  <defs>
    <style>
      .cls-1 {
        fill: url(#linear-gradient);
      }

      .cls-2 {
        fill: url(#linear-gradient-2);
      }
    </style>
    <linearGradient id="linear-gradient" x1="1.122" y1="0.05" x2="0.368" y2="1.335" gradientUnits="objectBoundingBox">
      <stop offset="0" stop-color="#f81d7a"/>
      <stop offset="1" stop-color="#e03e3e"/>
    </linearGradient>
    <linearGradient id="linear-gradient-2" x1="1.122" y1="0.05" x2="0.368" y2="1.335" gradientUnits="objectBoundingBox">
      <stop offset="0" stop-color="#f81d7a"/>
      <stop offset="1" stop-color="#5c5757"/>
    </linearGradient>
  </defs>
  <g id="Group_8" data-name="Group 8" transform="translate(0.447 -468.241)">
    <path id="Path_3" data-name="Path 3" class="cls-1" d="M574.807,457.891c333.588,97.08,374.011-165.333,488.7-72.355,78.906,63.968,191.242-31.234,273.459-78.288,1.206-.69,0,53.659,0,53.659V639.569l-1279.758-.56s-.959-.556,0-1.922C73.225,614.239,256.563,365.277,574.807,457.891Z" transform="translate(-57.23 161)"/>
    <path id="Path_4" data-name="Path 4" class="cls-2" d="M574.807,457.891c333.588,97.08,374.011-165.333,488.7-72.355,40.558,32.879,89.947,23.707,139.68.57,1.039-.483.547,151.6-.794,153.376,0,0-444.422.484-754.1.979-40.842.065-78.441-.21-113.335,0-68.79.415-123.477.252-154.57,0-20.4-.165-30.426.694-26.612-2.3C240.531,470.173,383.223,402.137,574.807,457.891Z" transform="translate(76.77 260)"/>
  </g>
</svg>
